<svg xmlns="http://www.w3.org/2000/svg" width="209" height="55" viewBox="0 0 209 55">
  <g id="Groupe_1" data-name="Groupe 1" transform="translate(-1182 -13)">
    <g id="Rectangle_9" data-name="Rectangle 9" transform="translate(1182 13)" fill="none" stroke="#fff" stroke-width="3">
      <rect width="209" height="55" rx="27.5" stroke="none"/>
      <rect x="1.5" y="1.5" width="206" height="52" rx="26" fill="none"/>
    </g>
    <path id="Icon_material-apps" data-name="Icon material-apps" d="M6,14.124h9.411V6H6ZM20.117,38.5h9.411V30.372H20.117ZM6,38.5h9.411V30.372H6ZM6,26.31h9.411V18.186H6Zm14.117,0h9.411V18.186H20.117ZM34.234,6v8.124h9.411V6ZM20.117,14.124h9.411V6H20.117ZM34.234,26.31h9.411V18.186H34.234Zm0,12.186h9.411V30.372H34.234Z" transform="translate(1200.177 18)" fill="#fff"/>
    <text id="Apps" transform="translate(1256 22)" fill="#f2f2f2" font-size="30" font-family="Calibri"><tspan x="0" y="29">Apps</tspan></text>
  </g>
</svg>
